<?xml version="1.0" encoding="UTF-8" standalone="no"?>
<!-- Created with Inkscape (http://www.inkscape.org/) -->

<svg
   version="1.1"
   id="svg1"
   width="474"
   height="474"
   viewBox="0 0 474 474"
   sodipodi:docname="noface2_svg.svg"
   inkscape:version="1.3.2 (091e20e, 2023-11-25, custom)"
   xmlns:inkscape="http://www.inkscape.org/namespaces/inkscape"
   xmlns:sodipodi="http://sodipodi.sourceforge.net/DTD/sodipodi-0.dtd"
   xmlns="http://www.w3.org/2000/svg"
   xmlns:svg="http://www.w3.org/2000/svg">
  <defs
     id="defs1" />
  <sodipodi:namedview
     id="namedview1"
     pagecolor="#ffffff"
     bordercolor="#000000"
     borderopacity="0.25"
     inkscape:showpageshadow="2"
     inkscape:pageopacity="0.0"
     inkscape:pagecheckerboard="0"
     inkscape:deskcolor="#d1d1d1"
     showgrid="false"
     inkscape:zoom="0.57955904"
     inkscape:cx="330.42363"
     inkscape:cy="221.72029"
     inkscape:window-width="1920"
     inkscape:window-height="991"
     inkscape:window-x="-9"
     inkscape:window-y="-9"
     inkscape:window-maximized="1"
     inkscape:current-layer="g1" />
  <g
     inkscape:groupmode="layer"
     inkscape:label="Image"
     id="g1">
    <path
       style="fill:#000000"
       d="m 28.329341,472.25 c 0.309431,-0.9625 3.321828,-9.4 6.694214,-18.75 3.372387,-9.35 6.586144,-18.575 7.141684,-20.5 0.555539,-1.925 2.98002,-9.40586 5.387734,-16.62414 4.905946,-14.70792 8.508867,-27.97833 10.826314,-39.87586 4.0132,-20.60337 11.618074,-64.66955 15.614607,-90.4783 1.658937,-10.71306 3.232338,-20.16306 3.496447,-21 0.584942,-1.85363 4.433668,-24.04285 8.502826,-49.0217 4.188882,-25.71379 4.703409,-28.4762 8.567984,-46 C 104.74764,123.80964 120.87924,88.982004 142.77565,65.906302 157.68226,50.196858 171.24213,40.345365 191.5,30.507149 c 30.07096,-14.603931 47.78033,-17.928087 72.07511,-13.528936 16.49024,2.985955 21.52156,4.531845 36.33536,11.164166 14.42677,6.45904 17.49844,8.053172 28.58953,14.837342 10.42756,6.378302 23.15651,17.829945 28.87317,25.975828 5.70075,8.123228 17.73866,31.477511 21.33034,41.382191 6.4352,17.74616 17.03458,59.44961 22.28031,87.66226 1.17604,6.325 3.44327,18.25 5.03828,26.5 1.59502,8.25 3.63359,19.725 4.53016,25.5 0.89657,5.775 2.90917,17.925 4.47244,27 1.56326,9.075 4.25973,25.05 5.99215,35.5 3.91288,23.60268 7.37823,40.03743 11.1753,53 1.61109,5.5 4.484,15.4 6.38425,22 4.09905,14.23701 13.39833,43.55113 17.60618,55.5 7.09388,20.14421 8.60974,24.68024 9.27355,27.75 l 0.70278,3.25 H 246.96282 C 38.656988,474 27.794689,473.91306 28.329341,472.25 Z M 261.22375,396.02626 c 18.32166,-5.31877 30.59508,-11.99022 40.68183,-22.11334 21.8811,-21.96 34.05225,-48.38777 44.17212,-95.91292 6.37115,-29.92032 6.24194,-28.6967 6.17754,-58.5 -0.0711,-32.88522 -1.44385,-44.06993 -8.77573,-71.5 -1.3966,-5.225 -2.98448,-11.21591 -3.52862,-13.31314 -1.39172,-5.36399 -6.98075,-16.04444 -12.35197,-23.60417 C 310.18813,86.577859 284.79958,70.626314 254.91361,65.414756 244.36796,63.57579 230.54674,64.026688 220.90747,66.524158 203.00559,71.16242 182.46995,85.285178 168.30762,102.6981 150.48248,124.61453 140.67655,148.09203 134.34998,184 c -2.19916,12.48184 -2.45225,46.55565 -0.46052,62 5.57433,43.22468 12.0107,69.65222 23.38061,96 4.76436,11.04059 6.9422,14.72845 14.83402,25.11933 5.15984,6.79377 16.31401,17.82929 18.05863,17.86653 0.36449,0.008 3.04486,1.58297 5.95638,3.50043 4.84733,3.19235 17.46954,8.01573 27.3809,10.46319 2.2,0.54326 9.175,0.80823 15.5,0.58882 9.07411,-0.31478 13.76214,-1.05563 22.22375,-3.51204 z M 223.5,354.4804 c -3.3,-0.7436 -6.52797,-1.38088 -7.17327,-1.4162 -0.64531,-0.0353 -2.55781,-1.2292 -4.25,-2.65309 -6.07544,-5.11215 -2.83464,-12.58231 6.70432,-15.45373 2.04542,-0.61571 12.04395,-1.50874 22.21895,-1.98451 26.95792,-1.26051 36.29455,0.4956 39.13849,7.36148 1.0458,2.52478 0.94315,3.46517 -0.70761,6.48223 -2.45455,4.48613 -7.09665,6.85569 -15.93184,8.13241 -9.80906,1.41745 -32.82558,1.14781 -39.99904,-0.46859 z m 82.91384,-28.6198 c -1.81155,-2.93117 -4.44685,-17.3551 -5.99702,-32.82387 -1.3816,-13.78672 -1.53501,-19.53809 -0.75192,-28.18993 1.11512,-12.32011 1.29495,-12.59195 10.19129,-15.40569 7.16176,-2.26512 12.06642,-0.92043 15.21304,4.17091 2.01414,3.25894 2.16096,4.4675 1.66803,13.73073 -0.77563,14.57597 -7.38078,42.32876 -12.51712,52.59309 -2.66175,5.31916 -6.41843,8.17037 -7.8063,5.92476 z M 173.25359,322.25 c -6.54344,-9.55832 -13.58351,-36.23322 -14.91586,-56.51639 -0.58837,-8.95708 -0.51595,-9.41479 1.94119,-12.2689 2.45132,-2.84734 2.88408,-2.96471 10.93182,-2.96471 10.27051,0 13.17605,1.51489 14.85926,7.74733 1.28323,4.75144 0.71439,18.29191 -1.6378,38.98528 -2.87226,25.26871 -6.08477,32.4582 -11.17861,25.01739 z m -8.44779,-83.67482 c -7.65107,-2.01727 -10.29391,-5.6787 -5.43291,-7.52685 6.9883,-2.65695 27.49112,-2.35389 31.28071,0.46237 6.67115,4.95771 -13.21951,10.39404 -25.8478,7.06448 z m 135.80755,-0.56703 c -5.82674,-1.05102 -7.50967,-2.36363 -6.03265,-4.7052 3.51134,-5.56663 27.28305,-6.83625 34.03779,-1.81792 2.45865,1.82661 0.90447,4.59696 -3.195,5.69519 -4.78553,1.28201 -19.55954,1.77503 -24.81014,0.82793 z M 162.5,218.9447 c -10.3456,-4.26678 -14.25595,-12.29889 -9.42205,-19.35351 8.71705,-12.7217 33.36702,-14.05183 42.34216,-2.28481 5.2799,6.92229 2.62199,16.55275 -5.77088,20.90981 -6.12613,3.18031 -20.28329,3.5602 -27.14923,0.72851 z m 138.16747,-0.37856 c -21.6001,-5.80561 -12.92786,-28.52344 10.90103,-28.55637 12.86434,-0.0178 22.06503,4.31975 24.4423,11.52296 2.30317,6.97868 -2.70188,14.36621 -11.53395,17.02427 -5.85022,1.76066 -17.27644,1.76505 -23.80938,0.009 z M 166.5,178.50525 c -6.57891,-2.35216 -7.83665,-4.71469 -7.18975,-13.50525 0.63444,-8.62133 5.57139,-25.82343 9.84278,-34.29578 4.63356,-9.19071 7.76558,-8.9505 11.60284,0.8899 3.37119,8.64518 5.36233,21.72977 5.03145,33.06375 L 185.5,174.5 181,176.63278 c -6.43256,3.04872 -9.94236,3.50196 -14.5,1.87247 z m 143,0.42727 c -9.64502,-2.26927 -10.91666,-5.0854 -10.80686,-23.93252 0.0642,-11.01935 0.38863,-13.32917 2.73891,-19.5 3.46918,-9.10857 5.11091,-11.5 7.89484,-11.5 2.61885,0 7.63761,4.89135 10.17104,9.91283 4.53999,8.99865 8.50207,24.67386 8.50207,33.63677 0,4.52548 -0.45337,5.90803 -2.75,8.38605 -3.16051,3.41014 -9.14977,4.54976 -15.75,2.99687 z"
       id="path1" />
  </g>
</svg>
